<svg width="24" height="24" viewBox="0 0 24 24" fill="none" xmlns="http://www.w3.org/2000/svg">
    <path class="set-svg-stroke"
          d="M12.0221 7.55422C12.0221 7.90121 12.0664 8.24819 12.1549 8.59518C8.30382 8.37831 4.85111 6.55663 2.5493 3.8241C1.30896 5.84966 2.00439 8.60881 4.01006 9.89639C3.25755 9.85301 2.50503 9.67952 1.88531 9.33253C1.88531 11.4941 3.43329 13.4003 5.60362 13.8434C4.89236 14.0176 4.2429 14.0309 3.52314 13.9301C4.09859 15.7518 5.82495 17.053 7.86117 17.0964C5.91219 18.5817 3.44338 19.2607 1 18.9614"
          stroke="black" stroke-width="1.5" stroke-linecap="round" stroke-linejoin="round"/>
    <path d="M12.1549 8.59518C12.0664 8.24819 12.0221 7.9012 12.0221 7.55422C12.0221 5.03855 14.1026 3 16.67 3C17.998 3 19.1932 3.52048 20.0785 4.43133C21.0966 4.21446 22.1147 3.8241 23 3.30361C23 6.17647 21.3577 7.23529 21.3577 7.23529C21.3577 7.23529 21.3577 7.57093 21.3577 8.0747C21.3577 14.1036 16.67 21 8.12676 21C5.47082 21 3.03622 20.2627 1 18.9614C3.44338 19.2607 5.91219 18.5817 7.86117 17.0964"
          stroke="black" stroke-width="1.5" stroke-linecap="round" stroke-linejoin="round"/>
</svg>
